<?xml version="1.0" standalone="no"?>
<!DOCTYPE svg PUBLIC "-//W3C//DTD SVG 20010904//EN"
 "http://www.w3.org/TR/2001/REC-SVG-20010904/DTD/svg10.dtd">
<svg version="1.0" xmlns="http://www.w3.org/2000/svg"
 width="742.000000pt" height="742.000000pt" viewBox="0 0 742.000000 742.000000"
 preserveAspectRatio="xMidYMid meet">

<g transform="translate(0.000000,742.000000) scale(0.100000,-0.100000)"
fill="#000000" stroke="none">
<path d="M3659 6670 c-75 -12 -183 -54 -244 -94 -165 -111 -259 -271 -272
-463 l-6 -83 -481 0 c-400 0 -492 -3 -541 -15 -142 -37 -274 -145 -339 -276
-65 -132 -66 -144 -66 -822 l0 -609 -27 22 c-110 84 -246 176 -290 196 l-53
24 0 414 c0 446 -1 456 -51 482 -40 20 -74 17 -106 -10 l-28 -24 -5 -306 -5
-306 -175 129 c-96 71 -204 151 -239 178 -130 97 -144 105 -176 99 -48 -10
-75 -43 -75 -91 0 -54 6 -60 204 -210 352 -267 433 -332 520 -422 50 -52 150
-139 221 -192 72 -54 165 -127 207 -162 l78 -64 0 -523 0 -522 -37 16 c-21 9
-48 20 -59 24 -19 8 -21 15 -17 53 13 113 -117 353 -281 521 -74 77 -135 110
-184 103 -98 -16 -105 -110 -14 -184 26 -20 62 -53 80 -73 35 -37 131 -170
151 -207 l11 -22 -44 19 c-151 64 -323 100 -489 100 -101 0 -109 -1 -132 -25
-33 -32 -33 -84 -2 -121 23 -26 30 -28 147 -36 186 -12 315 -46 479 -126 l93
-46 -59 -17 c-78 -22 -103 -36 -103 -58 0 -50 63 -68 287 -83 l172 -12 3 -795
3 -796 23 -66 c26 -79 89 -177 152 -237 25 -24 82 -62 127 -84 l83 -41 926 2
c891 2 926 2 920 -16 -3 -10 -24 -81 -46 -158 -23 -77 -53 -177 -68 -223 l-27
-83 -458 -3 -459 -4 -24 -23 c-30 -28 -32 -77 -4 -106 13 -15 37 -23 72 -27
29 -3 324 -5 656 -3 591 2 604 2 618 22 36 49 29 107 -16 130 -17 9 -55 15
-92 15 -53 0 -60 2 -48 14 21 19 146 65 360 131 102 31 201 68 220 81 19 13
87 75 150 139 l115 115 245 0 c335 0 400 19 530 150 128 131 150 201 150 486
l0 201 496 492 c278 276 493 482 489 469 -26 -92 -107 -217 -260 -398 -188
-223 -340 -446 -399 -587 -57 -136 -71 -208 -71 -358 1 -152 13 -211 64 -313
l27 -53 71 65 70 65 -18 54 c-26 76 -41 182 -34 236 30 234 125 407 417 762
233 282 315 425 338 590 40 278 -153 650 -395 766 -164 78 -358 67 -505 -27
-27 -17 -97 -84 -157 -149 -59 -64 -111 -117 -116 -117 -4 1 -9 57 -10 125
l-4 123 31 37 c17 20 83 83 146 141 63 57 187 174 275 260 227 221 345 314
490 388 76 38 99 63 99 109 0 46 -40 83 -90 83 -69 0 -281 -130 -407 -249 -55
-52 -53 -61 -16 94 11 50 34 130 50 179 35 107 35 108 7 140 -69 77 -141 15
-209 -179 -37 -106 -67 -257 -76 -378 l-6 -90 -101 -97 c-56 -53 -122 -116
-148 -139 l-48 -44 0 955 c0 825 -2 962 -15 1013 -43 165 -196 324 -363 375
-60 19 -94 20 -553 20 l-489 0 0 68 c0 149 -57 280 -169 392 -78 78 -173 136
-268 166 -59 18 -229 26 -304 14z m251 -196 c112 -33 218 -124 265 -226 40
-89 46 -147 43 -445 -3 -248 -5 -282 -22 -316 -26 -53 -82 -106 -141 -133 -48
-23 -60 -24 -278 -24 -248 0 -257 2 -342 60 -55 38 -90 91 -110 167 -18 68
-21 445 -5 558 40 277 311 442 590 359z m-782 -781 c-2 -147 -3 -150 -5 -40
l-4 117 -162 -2 c-103 0 -146 -4 -117 -8 25 -4 -63 -8 -197 -8 -209 -2 -243
-4 -243 -17 0 -11 -11 -15 -40 -15 -22 0 -40 -4 -40 -10 0 -5 -18 -10 -39 -10
-36 0 -40 3 -43 27 -3 24 -8 28 -38 29 -19 1 -30 -1 -23 -3 9 -3 7 -11 -7 -25
-10 -11 -16 -26 -14 -33 8 -19 -13 -28 -36 -15 -16 9 -18 13 -8 24 7 7 18 12
24 9 15 -6 26 25 12 33 -6 4 -8 3 -5 -3 4 -6 -4 -14 -18 -17 -31 -8 -81 -54
-77 -72 1 -7 -5 -26 -14 -41 l-16 -28 25 27 c17 18 27 23 30 15 3 -7 6 -2 6
11 1 12 -4 22 -10 22 -5 0 -8 4 -5 9 7 10 53 8 63 -3 4 -4 -7 -20 -25 -37 -18
-17 -32 -24 -32 -17 0 10 -2 10 -9 -1 -5 -8 -7 -20 -4 -26 2 -7 -8 -15 -23
-19 -21 -6 -25 -9 -14 -16 12 -7 11 -10 -4 -16 -11 -4 -21 -2 -27 7 -7 11 -9
11 -9 -2 0 -9 7 -22 15 -29 8 -7 12 -16 9 -21 -3 -5 -4 -10 -2 -11 2 -2 246
-5 543 -8 l540 -5 -599 -3 -599 -2 7 54 c17 152 117 280 249 322 32 10 155 13
515 13 l472 1 -2 -157z m2300 123 c80 -45 84 -55 18 -52 -38 2 -57 -2 -60 -11
-4 -9 4 -13 26 -13 18 0 36 -7 44 -17 19 -25 17 -38 -2 -19 -8 9 -27 16 -42
16 -34 0 -54 13 -50 31 2 10 -9 15 -40 17 -29 2 -42 0 -37 -7 4 -7 -10 -11
-39 -11 -25 0 -46 5 -46 10 0 6 -86 10 -237 10 -158 0 -233 -4 -223 -10 13 -8
12 -10 -2 -10 -10 0 -18 -7 -18 -15 0 -12 -16 -15 -80 -15 -64 0 -80 3 -80 15
0 8 -4 15 -10 15 -5 0 -10 -7 -10 -15 0 -8 -4 -15 -10 -15 -5 0 -10 7 -10 15
0 8 -7 15 -15 15 -8 0 -15 -7 -15 -15 0 -8 -4 -15 -9 -15 -15 0 -8 -44 9 -57
8 -7 11 -13 5 -13 -5 0 -11 -12 -12 -26 0 -14 -6 -31 -11 -36 -7 -7 -10 -6 -9
3 0 8 -1 49 -1 92 -2 77 -16 102 -28 50 -3 -16 -8 -36 -11 -45 -3 -12 1 -18
11 -18 9 0 16 -8 16 -17 0 -14 -2 -15 -9 -4 -6 9 -10 0 -13 -28 -3 -31 0 -40
9 -36 10 3 11 -3 7 -23 -4 -15 -11 -28 -16 -30 -4 -2 -8 -12 -8 -22 0 -10 -5
-22 -12 -26 -8 -5 -9 0 -5 17 4 13 7 97 7 187 l0 163 483 -3 482 -3 53 -29z
m-480 -63 c-10 -2 -28 -2 -40 0 -13 2 -5 4 17 4 22 1 32 -1 23 -4z m155 0
c-13 -2 -33 -2 -45 0 -13 2 -3 4 22 4 25 0 35 -2 23 -4z m-2943 -107 c0 -3 -4
-8 -10 -11 -5 -3 -10 -1 -10 4 0 6 5 11 10 11 6 0 10 -2 10 -4z m-40 -40 c0
-3 -4 -8 -10 -11 -5 -3 -10 -1 -10 4 0 6 5 11 10 11 6 0 10 -2 10 -4z m3063
-143 c-145 -2 -381 -2 -526 0 -144 1 -26 2 263 2 289 0 407 -1 263 -2z m-1878
-203 c26 -29 104 -77 155 -96 35 -12 90 -16 240 -18 288 -3 372 5 447 43 34
17 78 44 96 61 l35 30 681 0 681 0 0 -1186 0 -1187 -107 -116 c-60 -64 -130
-141 -157 -171 -28 -30 -109 -118 -181 -195 -73 -77 -163 -174 -201 -216 -38
-43 -132 -144 -209 -226 -209 -222 -507 -542 -636 -683 l-114 -125 -19 -82
-18 -82 -892 -5 c-490 -2 -909 -4 -930 -5 -124 -1 -245 128 -275 293 -8 42
-11 656 -11 2023 l0 1963 698 0 c685 0 699 0 717 -20z m3220 -1966 c85 -43
169 -139 225 -257 56 -119 57 -116 -67 -240 l-108 -107 -38 31 c-21 17 -34 36
-30 42 3 7 2 8 -2 4 -10 -8 -405 381 -405 398 0 16 101 111 137 129 85 42 202
42 288 0z m-374 -461 c158 -160 223 -233 177 -196 -8 7 -18 10 -22 6 -8 -8
-77 67 -71 77 3 4 -5 16 -16 26 -20 18 -21 18 -38 -4 -17 -23 -17 -23 -15 17
1 27 -4 45 -14 53 -13 11 -14 11 -8 -1 6 -9 5 -12 -5 -9 -8 3 -13 12 -13 21 1
9 -2 14 -8 11 -5 -3 -15 0 -23 6 -13 11 -15 6 -13 -27 0 -22 -2 -45 -6 -51
-10 -16 -54 6 -62 31 -4 14 -9 16 -17 8 -9 -9 -9 -14 -1 -19 6 -4 14 -16 18
-28 5 -17 2 -20 -29 -21 -26 -1 -33 2 -26 10 14 18 41 88 31 82 -5 -3 -11 -1
-14 3 -3 5 6 14 19 20 14 7 25 20 25 29 0 14 2 15 9 4 5 -8 16 -11 24 -8 8 3
24 -1 36 -9 37 -26 23 -9 -21 26 -24 19 -34 24 -24 12 19 -22 10 -32 -10 -12
-7 7 -23 0 -49 -25 -22 -19 -34 -35 -28 -35 22 0 21 -31 -2 -57 -22 -26 -24
-26 -31 -9 -6 17 3 29 31 39 6 3 7 8 2 12 -4 5 -38 -23 -77 -62 -51 -52 -66
-73 -57 -82 8 -8 8 -14 -2 -23 -10 -11 -11 -10 -6 5 4 10 2 17 -4 17 -17 0
-13 -24 9 -48 22 -23 26 -42 10 -42 -5 0 -10 5 -10 10 0 6 -11 8 -25 4 -19 -5
-25 -2 -25 10 0 23 4 31 13 29 4 -2 7 2 7 7 0 16 -15 12 -35 -10 -10 -11 -14
-20 -9 -20 5 0 -21 -28 -57 -63 -37 -35 -70 -73 -73 -85 -4 -12 -12 -19 -18
-16 -7 4 -8 2 -4 -4 4 -7 1 -12 -9 -12 -9 0 -13 -4 -10 -10 9 -15 43 10 50 37
3 14 10 21 17 17 7 -4 8 -3 4 4 -5 8 -2 10 8 6 9 -3 14 -10 11 -14 -3 -5 -1
-11 5 -15 7 -4 9 6 6 29 -2 20 0 38 5 41 5 4 9 0 9 -8 0 -8 9 -17 21 -20 31
-8 21 -47 -18 -72 -18 -11 -31 -27 -30 -35 2 -8 -6 -23 -17 -33 -19 -17 -19
-18 0 -32 10 -8 15 -15 10 -15 -5 0 0 -10 11 -22 25 -29 35 -56 22 -63 -5 -4
-14 7 -20 24 -6 17 -15 31 -20 31 -5 0 -4 -9 3 -20 11 -17 10 -22 -2 -30 -13
-9 -7 -14 13 -11 4 0 7 -4 7 -10 0 -14 61 -75 72 -72 4 2 7 0 7 -5 -3 -20 2
-25 12 -12 9 13 10 13 6 0 -2 -8 2 -23 11 -32 8 -10 11 -18 7 -18 -5 0 -45 37
-89 83 -45 46 -112 112 -151 147 -38 36 -81 77 -94 93 l-23 27 38 43 c21 23
86 94 144 157 59 63 162 177 229 253 68 75 126 137 130 137 4 0 86 -80 182
-177z m-231 -87 c0 -17 -47 -49 -60 -41 -5 3 2 19 17 35 26 29 43 31 43 6z
m-70 -78 c0 -19 -2 -20 -10 -8 -13 19 -13 30 0 30 6 0 10 -10 10 -22z m360
-18 c0 -5 -2 -10 -4 -10 -3 0 -8 5 -11 10 -3 6 -1 10 4 10 6 0 11 -4 11 -10z
m40 -25 c0 -8 -9 -15 -20 -15 -25 0 -26 17 -2 23 9 3 18 5 20 6 1 0 2 -6 2
-14z m-494 -53 c0 -11 -9 -18 -23 -18 l-24 -2 22 19 c27 23 25 23 25 1z m24
-67 c0 -19 -4 -35 -10 -35 -5 0 -10 16 -10 35 0 19 5 35 10 35 6 0 10 -16 10
-35z m-268 -442 c115 -114 208 -213 208 -218 0 -13 -288 -300 -294 -294 -3 2
-97 95 -210 207 l-205 204 142 154 c78 85 144 154 147 154 2 0 98 -93 212
-207z m245 127 c0 -19 -1 -25 -4 -14 -4 21 -43 42 -43 23 0 -5 7 -9 15 -9 8 0
15 -7 15 -16 0 -12 -6 -11 -28 8 -19 15 -24 24 -15 26 7 2 13 7 13 10 0 4 10
7 23 7 20 0 23 -5 24 -35z m58 -50 c3 -5 1 -10 -4 -10 -6 0 -11 5 -11 10 0 6
2 10 4 10 3 0 8 -4 11 -10z m0 -100 c10 -11 16 -20 13 -20 -3 0 -13 9 -23 20
-10 11 -16 20 -13 20 3 0 13 -9 23 -20z m-741 -410 c102 -105 186 -194 186
-199 0 -4 -33 -37 -72 -72 -90 -79 -89 -78 -338 -318 -281 -271 -312 -300
-335 -306 -71 -21 -347 -109 -378 -121 -20 -8 -41 -14 -45 -14 -9 0 112 473
129 506 16 31 647 712 660 713 4 1 90 -85 193 -189z m556 -380 c-15 -71 -49
-129 -101 -174 -66 -56 -113 -67 -280 -64 l-145 3 125 117 c70 65 189 175 266
246 l140 128 3 -100 c2 -56 -2 -126 -8 -156z"/>
<path d="M2418 5763 c12 -2 32 -2 45 0 12 2 2 4 -23 4 -25 0 -35 -2 -22 -4z"/>
<path d="M2125 5690 c3 -5 10 -10 16 -10 5 0 9 5 9 10 0 6 -7 10 -16 10 -8 0
-12 -4 -9 -10z"/>
<path d="M1970 5503 c0 -5 5 -15 10 -23 8 -12 10 -11 10 8 0 12 -4 22 -10 22
-5 0 -10 -3 -10 -7z"/>
<path d="M4658 5763 c12 -2 32 -2 45 0 12 2 2 4 -23 4 -25 0 -35 -2 -22 -4z"/>
<path d="M2365 4995 c-27 -26 -32 -60 -14 -98 16 -35 50 -47 134 -47 l75 0 0
-244 0 -245 26 -20 c39 -31 89 -28 125 8 l29 29 0 241 0 241 89 0 c85 0 91 1
110 26 12 15 21 39 21 54 0 15 -9 39 -21 54 l-20 26 -265 0 -265 0 -24 -25z"/>
<path d="M4017 5003 c-15 -18 -17 -49 -17 -326 0 -298 1 -308 21 -328 20 -20
29 -21 192 -17 170 4 173 4 234 36 201 104 239 393 73 559 -77 78 -111 88
-310 91 -163 4 -176 2 -193 -15z m341 -179 c76 -45 104 -150 63 -240 -31 -68
-82 -89 -208 -85 l-33 1 0 175 0 175 67 0 c53 0 75 -5 111 -26z"/>
<path d="M3167 4896 c-126 -47 -198 -146 -199 -271 0 -80 15 -127 63 -192 55
-73 125 -106 224 -105 128 1 208 52 261 166 47 102 23 248 -54 329 -67 71
-208 106 -295 73z m157 -181 c52 -48 54 -145 4 -196 -56 -55 -149 -31 -178 46
-26 69 7 151 69 171 43 14 74 8 105 -21z"/>
<path d="M4870 4901 c-134 -41 -213 -148 -213 -286 0 -188 161 -320 345 -284
78 15 140 57 182 121 84 128 67 278 -44 382 -69 64 -184 93 -270 67z m137
-176 c12 -8 29 -35 38 -60 35 -90 -17 -175 -106 -175 -100 0 -145 165 -62 229
31 25 99 28 130 6z"/>
<path d="M3647 4723 c-25 -7 -49 -59 -42 -93 12 -53 31 -61 165 -63 117 -2
122 -1 141 22 27 33 25 86 -6 116 -23 24 -30 25 -132 24 -59 -1 -116 -3 -126
-6z"/>
<path d="M2445 3918 c-37 -20 -45 -40 -45 -113 l0 -72 80 -79 c44 -43 86 -80
93 -82 11 -2 296 324 305 349 5 13 -409 11 -433 -3z"/>
<path d="M2874 3633 c-76 -87 -166 -186 -200 -220 -58 -60 -63 -63 -110 -63
-47 0 -51 2 -106 62 l-58 61 0 -72 c0 -63 3 -75 25 -96 l24 -25 260 0 260 0
28 24 28 24 3 231 c2 135 -1 231 -6 231 -5 0 -72 -71 -148 -157z"/>
<path d="M2426 2979 c-25 -20 -26 -23 -26 -133 l0 -112 49 -37 c26 -20 52 -37
57 -37 9 0 123 135 244 288 l42 52 -170 0 c-156 0 -171 -2 -196 -21z"/>
<path d="M2934 2883 c-33 -38 -121 -143 -197 -234 -183 -221 -223 -240 -321
-150 l-29 26 6 -55 c5 -39 13 -61 32 -80 l25 -25 254 0 c272 0 293 3 315 52
16 35 15 505 -1 521 -7 7 -15 12 -19 12 -3 0 -33 -30 -65 -67z"/>
<path d="M2453 2083 c-41 -8 -53 -40 -53 -135 l0 -88 68 -72 69 -71 61 74
c103 126 232 289 232 294 0 6 -345 4 -377 -2z"/>
<path d="M2838 1803 c-221 -266 -218 -262 -250 -279 -50 -26 -85 -18 -138 32
l-50 47 0 -52 c0 -55 19 -85 62 -96 13 -3 135 -5 272 -3 l248 3 24 28 c24 28
24 29 24 272 0 139 -4 246 -9 250 -5 3 -87 -88 -183 -202z"/>
<path d="M6527 2763 c-3 -5 1 -17 9 -28 8 -10 14 -13 14 -7 0 7 5 12 10 12 6
0 10 -10 10 -22 1 -21 2 -21 11 -5 8 13 6 21 -5 33 -9 8 -16 12 -16 8 0 -3 -6
-1 -14 5 -8 7 -16 8 -19 4z"/>
<path d="M6174 2770 c0 -13 4 -16 10 -10 7 7 7 13 0 20 -6 6 -10 3 -10 -10z"/>
<path d="M6252 2700 c14 -22 40 -36 32 -17 -2 7 -13 18 -24 25 -19 11 -19 11
-8 -8z"/>
<path d="M5546 2402 c-2 -4 4 -8 14 -8 10 0 16 4 14 8 -3 4 -9 8 -14 8 -5 0
-11 -4 -14 -8z"/>
<path d="M5560 2369 c0 -5 5 -7 10 -4 6 3 10 8 10 11 0 2 -4 4 -10 4 -5 0 -10
-5 -10 -11z"/>
<path d="M5555 2320 c3 -5 8 -10 11 -10 2 0 4 5 4 10 0 6 -5 10 -11 10 -5 0
-7 -4 -4 -10z"/>
<path d="M5581 2306 c-7 -8 -8 -17 -3 -20 12 -7 52 4 52 16 0 5 -5 6 -11 2 -6
-3 -15 -1 -19 5 -5 9 -10 8 -19 -3z"/>
<path d="M5610 2274 c1 -16 28 -45 34 -36 3 5 -3 17 -14 27 -11 10 -20 14 -20
9z"/>
<path d="M5884 2729 c-19 -22 -19 -22 4 -8 12 8 22 17 22 21 0 12 -6 9 -26
-13z"/>
<path d="M1166 1125 c-38 -35 -36 -82 7 -123 42 -41 79 -42 118 -3 39 40 39
82 0 122 -38 38 -87 39 -125 4z"/>
<path d="M1575 675 c53 -38 74 -31 34 11 -14 15 -34 24 -53 24 -31 0 -31 0 19
-35z"/>
<path d="M2085 645 c-32 -31 -32 -74 0 -109 l24 -26 206 0 206 0 24 26 c32 35
32 78 0 109 -24 25 -25 25 -230 25 -205 0 -206 0 -230 -25z"/>
<path d="M5186 639 c-31 -36 -32 -54 -7 -95 25 -40 46 -44 246 -44 l162 0 119
76 c66 41 123 80 128 85 6 5 -113 9 -306 9 l-316 0 -26 -31z"/>
<path d="M2348 323 c12 -2 30 -2 40 0 9 3 -1 5 -23 4 -22 0 -30 -2 -17 -4z"/>
<path d="M2310 291 c13 -10 13 -11 0 -11 -8 -1 29 -19 83 -40 73 -29 120 -41
181 -46 l83 -6 23 36 c26 42 15 70 -14 37 -16 -18 -21 -18 -51 -6 -18 8 -36
11 -40 7 -5 -4 -6 -2 -2 3 12 22 -31 31 -153 33 -88 2 -121 0 -110 -7z"/>
</g>
</svg>
